<?xml version="1.0" encoding="UTF-8" standalone="no"?>
<!DOCTYPE svg PUBLIC "-//W3C//DTD SVG 1.1//EN" "http://www.w3.org/Graphics/SVG/1.1/DTD/svg11.dtd">
<svg width="100%" height="100%" viewBox="0 0 10667 10667" version="1.1" xmlns="http://www.w3.org/2000/svg" xmlns:xlink="http://www.w3.org/1999/xlink" xml:space="preserve" xmlns:serif="http://www.serif.com/" style="fill-rule:evenodd;clip-rule:evenodd;stroke-linejoin:round;stroke-miterlimit:2;">
    <rect x="388.076" y="383.141" width="113.505" height="5233.72" style="fill:rgb(222,222,222);"/>
    <rect x="10131.7" y="5161.06" width="113.505" height="5233.72" style="fill:rgb(222,222,222);"/>
    <path d="M5621.79,1276.88L5621.79,1163.38L388.076,1163.38L388.076,1276.88L5621.79,1276.88Z" style="fill:rgb(222,222,222);"/>
    <path d="M5011.48,6054.8L5011.48,5941.3L10245.2,5941.3L10245.2,6054.8L5011.48,6054.8Z" style="fill:rgb(222,222,222);"/>
    <path d="M3378.83,2389.09L3378.83,2275.58L388.076,2275.58L388.076,2389.09L3378.83,2389.09Z" style="fill:rgb(222,222,222);"/>
    <path d="M7254.45,7167.01L7254.45,7053.5L10245.2,7053.5L10245.2,7167.01L7254.45,7167.01Z" style="fill:rgb(222,222,222);"/>
    <rect x="3265.32" y="2275.58" width="113.505" height="1765.31" style="fill:rgb(222,222,222);"/>
    <rect x="7254.45" y="7053.5" width="113.505" height="1765.31" style="fill:rgb(222,222,222);"/>
    <path d="M8620.7,4787.14L8620.7,4673.64L10386,4673.64L10386,4787.14L8620.7,4787.14Z" style="fill:rgb(222,222,222);"/>
    <path d="M8480.89,9888.64L8480.89,9775.14L10246.2,9775.14L10246.2,9888.64L8480.89,9888.64Z" style="fill:rgb(222,222,222);"/>
    <rect x="1505.39" y="3345.41" width="113.505" height="1765.31" style="fill:rgb(222,222,222);"/>
    <rect x="9014.38" y="8123.33" width="113.505" height="1765.31" style="fill:rgb(222,222,222);"/>
    <path d="M2767.66,4441.32L2767.66,4327.81L1505.39,4327.81L1505.39,4441.32L2767.66,4441.32Z" style="fill:rgb(222,222,222);"/>
    <path d="M7865.62,9219.24L7865.62,9105.73L9127.88,9105.73L9127.88,9219.24L7865.62,9219.24Z" style="fill:rgb(222,222,222);"/>
    <rect x="5219.83" y="1874.34" width="113.505" height="1765.31" style="fill:rgb(222,222,222);"/>
    <rect x="5299.94" y="6652.26" width="113.505" height="1765.31" style="fill:rgb(222,222,222);"/>
    <rect x="8636.67" y="275.005" width="113.505" height="1765.31" style="fill:rgb(222,222,222);"/>
    <rect x="1883.1" y="5052.93" width="113.505" height="1765.31" style="fill:rgb(222,222,222);"/>
    <rect x="7281.96" y="1926.81" width="113.505" height="2457.75" style="fill:rgb(222,222,222);"/>
    <rect x="3237.81" y="6704.73" width="113.505" height="2457.75" style="fill:rgb(222,222,222);"/>
    <path d="M1033.37,5167.72L1033.37,5054.21L3491.12,5054.21L3491.12,5167.72L1033.37,5167.72Z" style="fill:rgb(222,222,222);"/>
    <path d="M893.562,10269.2L893.562,10155.7L3351.31,10155.7L3351.31,10269.2L893.562,10269.2Z" style="fill:rgb(222,222,222);"/>
    <rect x="9072.19" y="4228.07" width="113.505" height="1489.14" style="fill:rgb(222,222,222);"/>
    <rect x="1447.58" y="9005.99" width="113.505" height="1489.14" style="fill:rgb(222,222,222);"/>
    <path d="M9999.98,4504.08L9999.98,4378.55L8510.84,4378.55L8510.84,4504.08L9999.98,4504.08Z" style="fill:rgb(222,222,222);"/>
    <path d="M633.299,9282L633.299,9156.47L2122.44,9156.47L2122.44,9282L633.299,9282Z" style="fill:rgb(222,222,222);"/>
    <rect x="7768.57" y="4596.77" width="125.524" height="1291.97" style="fill:rgb(222,222,222);"/>
    <rect x="2739.18" y="9374.69" width="125.524" height="1291.97" style="fill:rgb(222,222,222);"/>
    <path d="M8565.67,3271.74L8565.67,3158.24L5219.83,3158.24L5219.83,3271.74L8565.67,3271.74Z" style="fill:rgb(222,222,222);"/>
    <path d="M2067.61,8049.66L2067.61,7936.16L5413.45,7936.16L5413.45,8049.66L2067.61,8049.66Z" style="fill:rgb(222,222,222);"/>
    <path d="M9980.51,2040.32L9980.51,1926.81L6634.66,1926.81L6634.66,2040.32L9980.51,2040.32Z" style="fill:rgb(222,222,222);"/>
    <path d="M652.771,6818.24L652.771,6704.73L3998.61,6704.73L3998.61,6818.24L652.771,6818.24Z" style="fill:rgb(222,222,222);"/>
    <path d="M5276.58,4610.84L5276.58,4497.33L3763.52,4497.33L3763.52,4610.84L5276.58,4610.84Z" style="fill:rgb(222,222,222);"/>
    <path d="M5356.69,9388.76L5356.69,9275.25L6869.76,9275.25L6869.76,9388.76L5356.69,9388.76Z" style="fill:rgb(222,222,222);"/>
    <rect x="4184.96" y="3926.6" width="113.505" height="684.241" style="fill:rgb(222,222,222);"/>
    <rect x="6334.81" y="8704.52" width="113.505" height="684.241" style="fill:rgb(222,222,222);"/>
    <rect x="3960.68" y="231.835" width="113.505" height="1710.78" style="fill:rgb(222,222,222);"/>
    <rect x="6559.09" y="5009.76" width="113.505" height="1710.78" style="fill:rgb(222,222,222);"/>
    <rect x="4863.53" y="4497.33" width="113.505" height="684.241" style="fill:rgb(222,222,222);"/>
    <rect x="5656.24" y="9275.25" width="113.505" height="684.241" style="fill:rgb(222,222,222);"/>
</svg>
