<?xml version="1.0" encoding="UTF-8" standalone="no"?>
<!DOCTYPE svg PUBLIC "-//W3C//DTD SVG 1.1//EN" "http://www.w3.org/Graphics/SVG/1.1/DTD/svg11.dtd">
<svg width="100%" height="100%" viewBox="0 0 100 100" version="1.1" xmlns="http://www.w3.org/2000/svg" xmlns:xlink="http://www.w3.org/1999/xlink" xml:space="preserve" xmlns:serif="http://www.serif.com/" style="fill-rule:evenodd;clip-rule:evenodd;stroke-linecap:round;stroke-linejoin:round;stroke-miterlimit:1.5;">
    <g transform="matrix(1.62069,0,0,1.62069,-61.8276,-8.34483)">
        <path d="M74.036,7.441C70.704,6.853 67.296,6.853 63.964,7.441L64.971,13.152C62.306,13.622 59.744,14.555 57.4,15.908L54.5,10.885C51.57,12.577 48.959,14.768 46.785,17.359L51.228,21.087C49.488,23.16 48.125,25.522 47.199,28.065L41.749,26.081C40.592,29.26 40,32.617 40,36L45.8,36C45.8,38.706 46.274,41.392 47.199,43.935L41.749,45.919C42.906,49.097 44.61,52.049 46.785,54.641L51.228,50.913C52.967,52.986 55.056,54.739 57.4,56.092L54.5,61.115C57.43,62.806 60.633,63.972 63.964,64.559L64.971,58.848C67.637,59.317 70.363,59.317 73.029,58.848L74.036,64.559C77.367,63.972 80.57,62.806 83.5,61.115L80.6,56.092C82.944,54.739 85.033,52.986 86.772,50.913L91.215,54.641C93.39,52.049 95.094,49.097 96.251,45.919L90.801,43.935C91.726,41.392 92.2,38.706 92.2,36L98,36C98,32.617 97.408,29.26 96.251,26.081L90.801,28.065C89.875,25.522 88.512,23.16 86.772,21.087L91.215,17.359C89.041,14.768 86.43,12.577 83.5,10.885L80.6,15.908C78.256,14.555 75.694,13.622 73.029,13.152L74.036,7.441ZM69,24.4C75.402,24.4 80.6,29.598 80.6,36C80.6,42.402 75.402,47.6 69,47.6C62.598,47.6 57.4,42.402 57.4,36C57.4,29.598 62.598,24.4 69,24.4Z" style="fill:white;stroke:black;stroke-width:3.09px;"/>
    </g>
</svg>
